<svg width="26" height="26" viewBox="0 0 26 26" fill="none" xmlns="http://www.w3.org/2000/svg">
<g id="ep:arrow-up-bold">
<path id="Vector" d="M17.3988 23.3415C17.7034 23.0368 17.8745 22.6235 17.8745 22.1926C17.8745 21.7617 17.7034 21.3485 17.3988 21.0437L9.35502 13L17.3988 4.95623C17.6948 4.64975 17.8586 4.23927 17.8549 3.81321C17.8512 3.38713 17.6803 2.97956 17.379 2.67828C17.0777 2.37699 16.6701 2.20609 16.244 2.20239C15.818 2.19868 15.4075 2.36248 15.101 2.65848L5.9084 11.8511C5.60375 12.1558 5.43262 12.5691 5.43262 13C5.43262 13.4309 5.60375 13.8441 5.9084 14.1489L15.101 23.3415C15.4058 23.6461 15.819 23.8173 16.2499 23.8173C16.6808 23.8173 17.094 23.6461 17.3988 23.3415Z" fill="#3F4354"/>
</g>
</svg>
