<svg width="25" height="25" viewBox="0 0 25 25" fill="none" xmlns="http://www.w3.org/2000/svg">
<path d="M7.21436 18.4572C6.93102 18.4572 6.69336 18.3612 6.50136 18.1692C6.30936 17.9772 6.21369 17.7398 6.21436 17.4572V15.4572H19.2144V6.45716H21.2144C21.4977 6.45716 21.7354 6.55316 21.9274 6.74516C22.1194 6.93716 22.215 7.17449 22.2144 7.45716V22.4572L18.2144 18.4572H7.21436ZM2.21436 17.4572V3.45716C2.21436 3.17382 2.31036 2.93616 2.50236 2.74416C2.69436 2.55216 2.93169 2.45649 3.21436 2.45716H16.2144C16.4977 2.45716 16.7354 2.55316 16.9274 2.74516C17.1194 2.93716 17.215 3.17449 17.2144 3.45716V12.4572C17.2144 12.7405 17.1184 12.9782 16.9264 13.1702C16.7344 13.3622 16.497 13.4578 16.2144 13.4572H6.21436L2.21436 17.4572Z" fill="#3F4354"/>
</svg>
