<svg width="31" height="31" viewBox="0 0 31 31" fill="none" xmlns="http://www.w3.org/2000/svg">
<path d="M25.2144 15.4572H13.3394M22.7144 19.2072L26.4644 15.4572L22.7144 11.7072M16.4644 9.20715V7.95715C16.4644 7.29411 16.201 6.65823 15.7321 6.18939C15.2633 5.72055 14.6274 5.45715 13.9644 5.45715H7.71436C7.05131 5.45715 6.41543 5.72055 5.94659 6.18939C5.47775 6.65823 5.21436 7.29411 5.21436 7.95715V22.9572C5.21436 23.6202 5.47775 24.2561 5.94659 24.7249C6.41543 25.1938 7.05131 25.4572 7.71436 25.4572H13.9644C14.6274 25.4572 15.2633 25.1938 15.7321 24.7249C16.201 24.2561 16.4644 23.6202 16.4644 22.9572V21.7072" stroke="#3F4354" stroke-width="2" stroke-linecap="round" stroke-linejoin="round"/>
</svg>
