<svg width="22" height="22" viewBox="0 0 22 22" fill="none" xmlns="http://www.w3.org/2000/svg">
<path d="M5.49968 12.8333H16.4997V10.9999H5.49968V12.8333ZM5.49968 10.0833H16.4997V8.24992H5.49968V10.0833ZM5.49968 7.33325H16.4997V5.49992H5.49968V7.33325ZM3.66634 16.4999C3.16218 16.4999 2.73043 16.3203 2.37109 15.9609C2.01176 15.6016 1.8324 15.1701 1.83301 14.6666V3.66659C1.83301 3.16242 2.01268 2.73067 2.37201 2.37134C2.73134 2.012 3.16279 1.83264 3.66634 1.83325H18.333C18.8372 1.83325 19.2689 2.01292 19.6283 2.37225C19.9876 2.73159 20.167 3.16303 20.1663 3.66659V20.1666L16.4997 16.4999H3.66634Z" fill="#C5D0E6"/>
</svg>
