<svg width="20" height="20" viewBox="0 0 20 20" fill="none" xmlns="http://www.w3.org/2000/svg">
<path fill-rule="evenodd" clip-rule="evenodd" d="M4.28472 1.28633C0.582052 2.41944 -0.738149 6.2488 0.391497 9.59911C2.20862 14.9716 10.0014 19 10.0014 19C10.0014 19 17.8521 14.9096 19.6102 9.59911C20.7388 6.2488 19.4102 2.41944 15.7075 1.28633C13.762 0.693278 11.5332 1.07331 10.0014 2.19842C8.38219 1.04131 6.23239 0.689278 4.28472 1.28633ZM13.7574 4.27341C13.3561 4.1707 12.9476 4.41274 12.8448 4.81402C12.7421 5.2153 12.9842 5.62386 13.3855 5.72656C14.768 6.08041 15.5877 7.00902 15.6825 7.93365C15.7247 8.3457 16.093 8.64547 16.5051 8.60321C16.9171 8.56095 17.2169 8.19266 17.1747 7.78061C16.9982 6.06044 15.5644 4.73589 13.7574 4.27341Z" fill="#C5D0E6"/>
</svg>
