<svg width="22" height="22" viewBox="0 0 22 22" fill="none" xmlns="http://www.w3.org/2000/svg">
<path d="M18.3333 11H9.62496M16.5 13.75L19.25 11L16.5 8.24996M11.9166 6.41663V5.49996C11.9166 5.01373 11.7235 4.54741 11.3797 4.2036C11.0358 3.85978 10.5695 3.66663 10.0833 3.66663H5.49996C5.01373 3.66663 4.54741 3.85978 4.2036 4.2036C3.85978 4.54741 3.66663 5.01373 3.66663 5.49996V16.5C3.66663 16.9862 3.85978 17.4525 4.2036 17.7963C4.54741 18.1401 5.01373 18.3333 5.49996 18.3333H10.0833C10.5695 18.3333 11.0358 18.1401 11.3797 17.7963C11.7235 17.4525 11.9166 16.9862 11.9166 16.5V15.5833" stroke="#C5D0E6" stroke-width="2" stroke-linecap="round" stroke-linejoin="round"/>
</svg>
