<svg width="26" height="26" viewBox="0 0 26 26" fill="none" xmlns="http://www.w3.org/2000/svg">
<path d="M11.9996 1.81245C12.4894 1.05563 13.5967 1.05563 14.0865 1.81245L15.1829 3.50673C15.5026 4.00065 16.1247 4.2028 16.6736 3.99109L18.5565 3.26485C19.3976 2.94045 20.2934 3.59131 20.2448 4.49147L20.136 6.50664C20.1042 7.0941 20.4888 7.62333 21.0573 7.77469L23.0074 8.2939C23.8786 8.52582 24.2208 9.57895 23.6523 10.2786L22.3798 11.8449C22.0088 12.3016 22.0088 12.9557 22.3798 13.4123L23.6523 14.9787C24.2208 15.6783 23.8786 16.7315 23.0074 16.9634L21.0573 17.4826C20.4888 17.634 20.1042 18.1632 20.136 18.7506L20.2448 20.7658C20.2934 21.666 19.3976 22.3168 18.5565 21.9924L16.6736 21.2662C16.1247 21.0545 15.5026 21.2566 15.1829 21.7506L14.0865 23.4448C13.5967 24.2017 12.4894 24.2017 11.9996 23.4448L10.9032 21.7506C10.5836 21.2566 9.96143 21.0545 9.41253 21.2662L7.52963 21.9924C6.68855 22.3168 5.7927 21.666 5.84132 20.7658L5.95017 18.7506C5.9819 18.1632 5.59739 17.634 5.02887 17.4826L3.0787 16.9634C2.20758 16.7315 1.86539 15.6783 2.43383 14.9787L3.70637 13.4123C4.07734 12.9557 4.07734 12.3016 3.70637 11.8449L2.43383 10.2786C1.86539 9.57895 2.20757 8.52582 3.0787 8.2939L5.02887 7.77469C5.59739 7.62333 5.9819 7.0941 5.95017 6.50664L5.84132 4.49148C5.7927 3.59132 6.68855 2.94045 7.52963 3.26485L9.41253 3.99109C9.96143 4.2028 10.5836 4.00065 10.9032 3.50673L11.9996 1.81245Z" fill="#0ECC8D"/>
<path d="M6.16014 14.9V10.038H7.28617L8.55388 12.4541L9.03114 13.5279H9.06097C9.04108 13.2694 9.01374 12.9811 8.97894 12.6629C8.94414 12.3447 8.92674 12.0415 8.92674 11.7531V10.038H9.97074V14.9H8.84471L7.57699 12.4765L7.09974 11.4175H7.06991C7.09477 11.686 7.12211 11.9743 7.15194 12.2826C7.18674 12.5908 7.20414 12.8891 7.20414 13.1774V14.9H6.16014ZM12.6854 14.9895C12.3325 14.9895 12.0143 14.9125 11.7309 14.7583C11.4475 14.6042 11.2238 14.383 11.0598 14.0947C10.8957 13.8063 10.8137 13.4583 10.8137 13.0507C10.8137 12.648 10.8957 12.3025 11.0598 12.0141C11.2288 11.7258 11.4475 11.5045 11.716 11.3504C11.9845 11.1913 12.2653 11.1118 12.5587 11.1118C12.9116 11.1118 13.2025 11.1913 13.4311 11.3504C13.6648 11.5045 13.8388 11.7158 13.9531 11.9843C14.0725 12.2478 14.1321 12.5485 14.1321 12.8866C14.1321 12.9811 14.1271 13.0755 14.1172 13.17C14.1073 13.2595 14.0973 13.3266 14.0874 13.3713H11.8726C11.9223 13.6398 12.0342 13.8386 12.2082 13.9679C12.3822 14.0922 12.591 14.1543 12.8346 14.1543C13.0981 14.1543 13.364 14.0723 13.6325 13.9082L13.9979 14.5719C13.809 14.7012 13.5977 14.8031 13.364 14.8777C13.1304 14.9522 12.9042 14.9895 12.6854 14.9895ZM11.8651 12.648H13.2C13.2 12.4441 13.1503 12.2776 13.0508 12.1483C12.9564 12.0141 12.7998 11.947 12.581 11.947C12.412 11.947 12.2604 12.0067 12.1261 12.126C11.9919 12.2403 11.9049 12.4143 11.8651 12.648ZM15.4648 14.9L14.5402 11.2013H15.6289L15.9868 12.9164C16.0167 13.1004 16.044 13.2818 16.0689 13.4608C16.0937 13.6398 16.1211 13.8237 16.1509 14.0126H16.1807C16.2155 13.8237 16.2478 13.6373 16.2777 13.4533C16.3125 13.2694 16.3522 13.0904 16.397 12.9164L16.8071 11.2013H17.7542L18.1718 12.9164C18.2165 13.1004 18.2563 13.2818 18.2911 13.4608C18.3309 13.6398 18.3682 13.8237 18.403 14.0126H18.4328C18.4676 13.8237 18.4949 13.6398 18.5148 13.4608C18.5397 13.2818 18.5695 13.1004 18.6043 12.9164L18.9548 11.2013H19.969L19.0816 14.9H17.7989L17.4634 13.4235C17.4286 13.2495 17.3938 13.0755 17.359 12.9015C17.3291 12.7275 17.2968 12.5411 17.262 12.3422H17.2322C17.1974 12.5411 17.1651 12.7275 17.1352 12.9015C17.1104 13.0755 17.0806 13.2495 17.0458 13.4235L16.7176 14.9H15.4648Z" fill="white"/>
</svg>
