<svg width="26" height="19" viewBox="0 0 26 19" fill="none" xmlns="http://www.w3.org/2000/svg">
<g id="Group">
<path id="Vector" d="M8.96816 14.9882L11.8002 18.021C12.0812 18.3135 12.5959 18.1008 12.5959 17.702V15.0149L14.8441 15.0147C16.0703 15.0147 17.0666 13.9776 17.0666 12.7012L17.0668 3.07062C17.0668 1.7942 16.0705 0.75708 14.8442 0.75708H2.83706C1.61084 0.75708 0.614502 1.7942 0.614502 3.07062V12.6746C0.614502 13.951 1.61084 14.9881 2.83706 14.9881L8.96816 14.9882ZM5.72381 6.2618L7.71649 6.10228L8.48295 4.16104C8.63621 3.78875 9.12163 3.78875 9.24941 4.16104L10.0159 6.10228L12.0086 6.2618C12.3917 6.28833 12.5451 6.76712 12.2384 7.03291L10.7055 8.3891L11.191 10.4101C11.2931 10.7824 10.8844 11.1015 10.5523 10.8887L8.84061 9.79833L7.12895 10.8887C6.79679 11.1015 6.41363 10.7824 6.49027 10.4101L6.97571 8.3891L5.44279 7.03291C5.18725 6.79361 5.34049 6.28849 5.72381 6.2618ZM19.9536 4.61309C19.3916 4.61309 18.9318 4.13451 18.9318 3.54947C18.9318 2.96442 19.3916 2.48584 19.9536 2.48584H24.4499C25.0119 2.48584 25.4716 2.96442 25.4716 3.54947C25.4716 4.13451 25.0119 4.61309 24.4499 4.61309H19.9536ZM18.9573 7.7777C18.9573 7.19265 19.417 6.71408 19.979 6.71408H23.3002C23.8623 6.71408 24.322 7.19265 24.322 7.7777C24.322 8.36274 23.8623 8.84132 23.3002 8.84132H19.9536C19.3916 8.84132 18.9573 8.36274 18.9573 7.7777ZM18.9573 12.0059C18.9573 11.4209 19.417 10.9423 19.979 10.9423H21.9974C22.5594 10.9423 23.0192 11.4209 23.0192 12.0059C23.0192 12.591 22.5594 13.0696 21.9974 13.0696H19.9535C19.3915 13.0696 18.9573 12.591 18.9573 12.0059Z" fill="#EEA956"/>
</g>
</svg>
