<svg width="16" height="19" viewBox="0 0 16 19" fill="none" xmlns="http://www.w3.org/2000/svg">
<path d="M2.6875 8.125C2.60462 8.125 2.52513 8.15792 2.46653 8.21653C2.40792 8.27513 2.375 8.35462 2.375 8.4375V16.5625C2.375 16.735 2.515 16.875 2.6875 16.875H13.3125C13.3954 16.875 13.4749 16.8421 13.5335 16.7835C13.5921 16.7249 13.625 16.6454 13.625 16.5625V8.4375C13.625 8.35462 13.5921 8.27513 13.5335 8.21653C13.4749 8.15792 13.3954 8.125 13.3125 8.125H12.0625C11.8139 8.125 11.5754 8.02623 11.3996 7.85041C11.2238 7.6746 11.125 7.43614 11.125 7.1875C11.125 6.93886 11.2238 6.7004 11.3996 6.52459C11.5754 6.34877 11.8139 6.25 12.0625 6.25H13.3125C14.52 6.25 15.5 7.23 15.5 8.4375V16.5625C15.5 17.1427 15.2695 17.6991 14.8593 18.1093C14.4491 18.5195 13.8927 18.75 13.3125 18.75H2.6875C2.10734 18.75 1.55094 18.5195 1.1407 18.1093C0.730468 17.6991 0.5 17.1427 0.5 16.5625V8.4375C0.5 7.23 1.48 6.25 2.6875 6.25H3.9375C4.18614 6.25 4.4246 6.34877 4.60041 6.52459C4.77623 6.7004 4.875 6.93886 4.875 7.1875C4.875 7.43614 4.77623 7.6746 4.60041 7.85041C4.4246 8.02623 4.18614 8.125 3.9375 8.125H2.6875ZM7.77875 0.221249C7.80778 0.192147 7.84226 0.169058 7.88023 0.153304C7.91819 0.13755 7.9589 0.12944 8 0.12944C8.0411 0.12944 8.08181 0.13755 8.11977 0.153304C8.15774 0.169058 8.19222 0.192147 8.22125 0.221249L11.8412 3.84125C11.8851 3.88495 11.9149 3.94069 11.927 4.00138C11.9391 4.06207 11.9329 4.12499 11.9092 4.18216C11.8855 4.23933 11.8454 4.28818 11.7939 4.32251C11.7424 4.35684 11.6819 4.37511 11.62 4.375H8.9375V11.5625C8.9375 11.8111 8.83873 12.0496 8.66291 12.2254C8.4871 12.4012 8.24864 12.5 8 12.5C7.75136 12.5 7.5129 12.4012 7.33709 12.2254C7.16127 12.0496 7.0625 11.8111 7.0625 11.5625V4.375H4.38C4.31811 4.37511 4.25758 4.35684 4.20609 4.32251C4.1546 4.28818 4.11446 4.23933 4.09076 4.18216C4.06706 4.12499 4.06087 4.06207 4.07298 4.00138C4.08508 3.94069 4.11493 3.88495 4.15875 3.84125L7.77875 0.221249Z" fill="#C5D0E6"/>
</svg>
